PathFileType	4	(X/Y/Z)	Patient4_TMGait_0pt2_01_left_14.trc.trc
DataRate	CameraRate	NumFrames	NumMarkers	Units	OrigDataRate	OrigDataStartFrame	OrigNumFrames
43.613707165109	43.613707165109	4	33	mm	43.613707165109	53	       141
Frame#	Time	Sacral			L.Shoulder			Chest			R.Shoulder			Neck			R.ASIS			L.ASIS			R.Thigh.Superior			R.Thigh.Lateral			R.Thigh.Inferior			R.Patella			L.Thigh.Superior			L.Thigh.Lateral			L.Thigh.Inferior			L.Patella			L.Shank.Superior			L.Shank.Lateral			L.Shank.Inferior			R.Shank.Superior			R.Shank.Lateral			R.Shank.Inferior			R.Heel			R.Midfoot.Superior			R.Midfoot.Lateral			R.Toe			L.Heel			L.Midfoot.Lateral			L.Midfoot.Superior			L.Toe			L.Elbow			L.Wrist			R.Elbow			R.Wrist			
		X1	Y1	Z1	X2	Y2	Z2	X3	Y3	Z3	X4	Y4	Z4	X5	Y5	Z5	X6	Y6	Z6	X7	Y7	Z7	X8	Y8	Z8	X9	Y9	Z9	X10	Y10	Z10	X11	Y11	Z11	X12	Y12	Z12	X13	Y13	Z13	X14	Y14	Z14	X15	Y15	Z15	X16	Y16	Z16	X17	Y17	Z17	X18	Y18	Z18	X19	Y19	Z19	X20	Y20	Z20	X21	Y21	Z21	X22	Y22	Z22	X23	Y23	Z23	X24	Y24	Z24	X25	Y25	Z25	X26	Y26	Z26	X27	Y27	Z27	X28	Y28	Z28	X29	Y29	Z29	X30	Y30	Z30	X31	Y31	Z31	X32	Y32	Z32	X33	Y33	Z33	

53	33.102285714286	655.668768766473	996.025707113365	422.872492143569	814.950479699243	1426.211507925968	239.459355857282	924.667111645683	1358.397976415162	396.308090381836	848.639442578280	1427.686360951211	574.597600491349	801.802862946095	1488.507073358929	398.447829731590	886.671729116772	931.229650531311	535.690320891203	868.670048714364	956.346530212168	262.467547389196	917.835146253918	725.616870099089	518.608042376642	835.494068833332	623.315268113127	591.180754173435	910.311461025285	558.115743308515	517.277094249255	897.807318577344	452.706635124050	542.488958946733	931.158716358139	751.508607740160	305.349407789850	857.593680014989	620.368990100919	250.171627600289	947.102822800432	555.107393616656	320.076900546946	952.502524354534	480.775397972306	330.587356274570	915.930364736130	406.762812364790	326.706676299765	817.589712275544	299.771031007370	277.039222467828	851.465560097542	187.398585031803	352.891897956026	820.179676730121	387.706247134250	555.890245287061	702.640741548515	351.563859589169	624.104432991864	685.735551493049	240.512117186302	579.338824052809	481.404654363801	174.515997772728	563.448835859111	651.549299249827	122.908809118676	602.878939019347	543.963609620459	119.911075156893	636.738152551525	719.605245086784	32.509686146365	628.750004024817	707.872625402618	39.726998363583	392.990581531313	783.402048113175	36.172713333703	314.052783172093	867.675379363781	95.862573908062	342.420352627586	995.497707592520	39.914509374444	315.381318228894	802.590606830630	1074.118307285801	120.970706423713	873.983061316198	822.680294155583	128.546704513404	917.855747801572	1079.659718309516	685.236286216356	1127.392715955590	930.893454945465	665.959898932850	
54	33.125214285714	655.040386170784	993.772858554434	417.355486568861	816.069392883379	1424.988197289619	236.235037193350	923.732866757458	1357.107946570219	394.454397434805	845.144869304444	1425.736280229153	571.950174470620	800.744830006923	1487.033660727064	395.162932836489	885.468743442346	930.105938227792	531.996894724671	869.758291018539	955.223102867664	258.511507486095	923.445926797897	726.798438447525	514.152197596798	845.321664391665	622.547756164045	587.407577200909	922.081501603227	559.019804908217	513.130425916406	911.681301252277	452.113280491089	539.453438305678	931.947039913813	749.837821975167	301.675295902145	858.439581839061	618.634042955205	247.189229870162	947.646417582886	553.536080569301	317.759438363637	952.853542546064	479.057532115539	328.636097002284	915.360254121419	404.935641125656	325.035150900002	815.868896257260	298.786323797542	275.545951109512	848.113697447944	186.463969326044	352.175184055294	832.141375086097	387.789412541881	552.834087743368	712.805153634423	356.038169874803	620.474657965389	692.878602997029	244.965807398383	576.785417551365	486.773142967125	187.039492368965	559.751888864344	654.749807701725	127.854005196251	600.969734891134	546.439230456403	130.071264433664	633.985712122677	718.132777970585	32.095707852852	628.443060509661	703.276588894236	39.725198542299	392.845936819743	778.806929104760	36.057762574420	313.881772208336	863.084657592824	95.733280874584	342.254602504891	990.932495034639	39.842109847741	315.338945599108	816.780375070093	1073.487541167953	114.796226723449	899.162061403469	825.455198199149	122.325610286614	901.611307183646	1075.022272123477	682.865782701191	1099.252686654997	909.795540692792	669.187967945659	
55	33.148142857143	654.261055692717	991.506774306231	412.258672624426	817.000971817224	1423.697478085760	233.318993245154	922.636748260865	1355.771801308526	392.863355933248	841.555497030517	1423.755691167093	569.557103955095	799.581727692748	1485.518640123434	392.199470840721	884.189655710921	928.980674281178	528.633672859380	870.707117801460	954.082438412835	254.833848040953	928.782113107027	728.223874515303	509.948083931666	854.881900528445	622.104930909854	583.918338431419	933.486042193541	560.343719349338	509.207212714888	925.295639358106	452.092754452244	536.483318849673	932.548789228511	748.151878490618	298.143024715063	859.026661358192	616.902732749953	244.340957641797	947.998578777252	551.949712768317	315.472022584686	953.040400579343	477.354743250836	326.707195573681	914.661909786503	403.118313504620	323.411020023038	814.050054739333	297.790658876184	274.094065795861	844.724006208222	185.532625063703	351.469438524213	844.115833192761	388.198832061770	549.795387956767	723.114345883774	360.266602080757	616.719074538190	700.675307676305	249.160002178492	573.980624991907	493.132122012249	197.858405453556	555.559715070946	659.312023132374	132.811851448169	598.700905605922	550.358181153430	139.258657441145	630.833522841941	718.912233364962	31.935631993264	627.991111475646	698.674499229686	39.717474023782	392.701830058353	774.207730256978	35.940635327948	313.707663576238	858.486314277054	95.593665965533	342.088316366578	986.363227959391	39.780332721718	315.292127299220	830.689980534571	1073.261219396589	109.112469655913	924.554579482488	829.362271335151	116.741602096817	884.872308124634	1070.864243100697	680.484089280193	1069.089092407220	890.054364026630	671.855256216038	
56	33.171071428571	653.363418737461	989.370479377068	407.587703919315	817.789927623480	1422.452590245610	230.711168610505	921.417133546296	1354.519058029165	391.543177631500	837.900830813576	1421.891939368453	567.413973321787	798.345514803240	1484.084161887754	389.549701005046	882.853663286416	927.983165128412	525.645415154347	871.551831124413	953.009185120673	251.489361246886	933.651702930222	729.931241224180	506.101666092667	863.832055533070	622.076683843363	580.770743086038	944.143304515689	562.127028523644	505.608330297351	938.258377815122	452.741877068152	533.668663543895	932.941454417929	746.503623554941	294.832970628790	859.268973789375	615.252913678537	241.688543767632	948.025686524547	550.390649421140	313.287145278217	952.905028046257	475.727470237070	324.882101268244	913.706946414562	401.382622287541	321.899474553399	812.062674428484	296.818635201991	272.735385610478	841.260558463228	184.641479390553	350.815051657621	855.824557806112	388.966080343848	546.888071930985	733.371837926082	363.977442735634	612.993876179776	709.163204873027	252.777494995070	571.060959202332	500.572684650523	206.060628745787	551.141311142938	665.548756042108	137.363136036993	596.208301811804	556.030682915628	146.696995734828	627.483678486147	722.602199866921	32.085183223947	627.410045646414	694.064932026411	39.703908517089	392.564649864889	769.604968162950	35.828181484777	313.539539187358	853.881311180582	95.450475315239	341.933175680148	981.788770498534	39.729524839292	315.242399474015	844.101583187942	1073.513015897315	103.968454073291	949.879856654356	834.544628009023	111.787160225999	867.734772510535	1067.381676187975	678.110558587292	1037.218362607121	872.131063346067	673.853036560626	
